<?xml version="1.0" encoding="UTF-8"?>
<svg width="26px" height="26px" viewBox="0 0 26 26" version="1.1" xmlns="http://www.w3.org/2000/svg" xmlns:xlink="http://www.w3.org/1999/xlink">
    <!-- Generator: sketchtool 53.2 (72643) - https://sketchapp.com -->
    <title>AA20D1D7-E9D5-412E-9252-A807B12C9C55</title>
    <desc>Created with sketchtool.</desc>
    <g id="Page-1" stroke="none" stroke-width="1" fill="none" fill-rule="evenodd" stroke-linecap="round">
        <g id="Acreto-Commit-Screen-Open" transform="translate(-1159.000000, -48.000000)" stroke="#76888F" stroke-width="1.5">
            <g id="Group-7" transform="translate(1159.000000, 49.000000)">
                <g id="commit-icon" transform="translate(0.750100, 0.565300)">
                    <polyline id="Stroke-1" stroke-linejoin="round" points="8.2499 14.4567 11.6999 11.4347 15.2989 14.4657"></polyline>
                    <path d="M11.7499,12.4347 L11.7499,23.4347" id="Stroke-2" stroke-linejoin="round"></path>
                    <path d="M17.226,17.53 C20.714,17.53 23.541,14.703 23.541,11.216 C23.541,7.728 20.714,4.901 17.226,4.901 C17.165,4.901 17.105,4.908 17.045,4.91 C16.096,2.059 13.411,-1.42108547e-14 10.241,-1.42108547e-14 C6.278,-1.42108547e-14 3.066,3.213 3.066,7.175 C3.066,7.435 3.081,7.692 3.109,7.946 C1.287,8.684 -3.71258579e-13,10.468 -3.71258579e-13,12.555 C-3.71258579e-13,15.303 2.227,17.53 4.975,17.53 L6.001,17.53" id="Stroke-4"></path>
                </g>
            </g>
        </g>
    </g>
</svg>