<?xml version="1.0" encoding="UTF-8"?>
<svg width="14px" height="15px" viewBox="0 0 14 15" version="1.1" xmlns="http://www.w3.org/2000/svg" xmlns:xlink="http://www.w3.org/1999/xlink">
    <!-- Generator: sketchtool 52.6 (67491) - http://www.bohemiancoding.com/sketch -->
    <title>7C92A049-6D9E-468C-952A-0E5C55852138</title>
    <desc>Created with sketchtool.</desc>
    <g id="Page-1" stroke="none" stroke-width="1" fill="none" fill-rule="evenodd">
        <g id="Ecosystem-list" transform="translate(-937.000000, -432.000000)" stroke="#6D8994">
            <path d="M949.25,445.36 C949.25,445.36 948.79,446.36 946.06,446.42 C946.06,446.42 944.34,446.48 943.9,446.42 C943.5,446.42 941.72,446.42 941.72,446.42 C939,446.32 938.53,445.36 938.53,445.36 C937.6,443.89 939.2,442.82 939.2,442.82 C939.959524,442.333035 940.759069,441.911518 941.59,441.56 C942.34,441.16 942.41,440.97 942.41,440.97 C942.557034,440.717851 942.537286,440.401879 942.36,440.17 C941.411423,439.277871 940.875486,438.03218 940.88,436.73 C940.88,433.22 943.59,433.17 943.88,433.17 C944.25,433.17 946.88,433.22 946.88,436.73 C946.884514,438.03218 946.348577,439.277871 945.4,440.17 C945.222714,440.401879 945.202966,440.717851 945.35,440.97 C945.564386,441.237795 945.847958,441.441828 946.17,441.56 C947.001035,441.911299 947.800598,442.332826 948.56,442.82 C948.56,442.82 950.18,443.89 949.25,445.36 Z" id="_Path_8"></path>
        </g>
    </g>
</svg>