<?xml version="1.0" encoding="UTF-8"?>
<svg width="123px" height="45px" viewBox="0 0 123 45" version="1.1" xmlns="http://www.w3.org/2000/svg" xmlns:xlink="http://www.w3.org/1999/xlink">
    <!-- Generator: sketchtool 52.6 (67491) - http://www.bohemiancoding.com/sketch -->
    <title>B3F640D7-C496-401D-B23C-41E7A31CC8C5</title>
    <desc>Created with sketchtool.</desc>
    <defs>
        <polygon id="path-1" points="1.74628097e-06 0.10125 22.8688225 0.10125 22.8688225 45 1.74628097e-06 45"></polygon>
        <polygon id="path-3" points="0.189826022 0.104253968 70.9179145 0.104253968 70.9179145 15.8093968 0.189826022 15.8093968"></polygon>
    </defs>
    <g id="-" stroke="none" stroke-width="1" fill="none" fill-rule="evenodd">
        <g id="Acreto-log-in" transform="translate(-62.000000, -34.000000)">
            <g id="logo" transform="translate(62.000000, 34.000000)">
                <g id="Group-11">
                    <g id="Group-3">
                        <mask id="mask-2" fill="white">
                            <use xlink:href="#path-1"></use>
                        </mask>
                        <g id="Clip-2"></g>
                        <path d="M22.8688225,44.8321657 C21.3890697,45.1319913 19.8354067,44.9820785 18.3556539,44.7573401 C13.3245978,43.9332122 8.95950787,41.6112645 5.40820449,37.6415843 C2.44869888,34.271032 0.673047191,30.3761773 0.155159551,25.8071076 C-0.584716854,19.1408285 1.33875506,13.3732413 5.55602472,8.42978198 C9.47739551,3.78588663 14.5084517,1.23920058 20.2791258,0.340247093 C20.7970135,0.265421512 21.3151596,0.19059593 21.7591371,0.115508721 C22.1289461,0.0406831395 22.3509348,0.265421512 22.3509348,0.639811047 C22.3509348,2.21297965 22.4248449,3.86071221 22.4248449,5.43361919 C22.4248449,5.95792151 22.055036,5.88309593 21.7591371,5.88309593 C19.983227,6.18265988 18.1336652,6.25774709 16.4319236,6.78178779 C10.2172719,8.72934593 5.77801348,12.848939 3.78037303,19.4403924 C1.85690112,25.8071076 3.11466517,31.7243459 7.10994607,36.817718 C10.7351596,41.536439 15.544227,43.9332122 21.240991,44.607689 C21.8330472,44.6825145 22.3509348,44.7573401 22.8688225,44.8321657" id="Fill-1" fill="#00A350" mask="url(#mask-2)"></path>
                    </g>
                    <path d="M42.8577787,24 C43.1589893,25.3058057 42.9330156,26.6116114 42.6318051,27.9174172 C41.351463,33.4312977 38.1128579,37.4214427 33.0669895,39.815631 C26.2133319,43.1529998 19.4351741,42.6449189 13.0334638,38.4370975 C8.36404283,35.390133 5.72785876,30.8921607 5.05020082,25.3782801 C4.89946402,24.435353 5.05020082,24.2901509 6.02933236,24.2901509 L9.26767443,24.2901509 C9.79485863,24.2901509 9.94559543,24.435353 10.0208323,25.0156548 C10.0960692,31.3275137 14.3890427,36.3330601 19.9623583,38.2921488 C25.9121213,40.3959328 31.4854369,39.5979545 36.5313053,35.8254861 C40.2215947,33.0686725 42.4058314,29.2234763 42.7822788,24.5078274 C42.7822788,24.2901509 42.8577787,24.1449487 42.8577787,24" id="Fill-4" fill="#F4891E"></path>
                    <path d="M26.070995,9.00429778 C29.4112355,8.9294499 32.3960044,9.82840957 34.9545552,12.0013534 C37.8683291,14.3988409 39.5739469,17.6207019 39.9291701,21.666413 C40.2846416,25.4127326 39.2894704,28.7845511 37.2286294,31.7064972 C34.4570937,35.6025125 30.6193917,37.550651 26.070995,38 C26,36.8011254 26.070995,35.6773604 26,34.4784858 C26,33.8791793 26.2132332,33.7294836 26.7106947,33.7294836 C29.3402405,33.654374 31.6853097,32.7554143 33.7463989,31.0320811 C38.5790239,26.9861083 39.3607136,19.4937309 35.5230117,14.3988409 C33.1776942,11.2520895 30.1219302,9.75356169 26.4974615,9.303951 L26.2132332,9.303951 C26.2132332,9.15425524 26.2132332,9.15425524 26.070995,9.00429778" id="Fill-6" fill="#4983C2"></path>
                    <g id="Group-10" transform="translate(52.000000, 15.000000)">
                        <mask id="mask-4" fill="white">
                            <use xlink:href="#path-3"></use>
                        </mask>
                        <g id="Clip-9"></g>
                        <path d="M61.5480788,9.8472381 C61.5480788,10.3561905 61.6235658,10.7925079 61.7745398,11.2285714 C61.9257777,11.6648889 62.1525026,12.0283175 62.4549784,12.3193651 C62.7569264,12.6101587 63.0594022,12.8283175 63.4371011,13.0464762 C63.8150639,13.191746 64.1927628,13.2646349 64.6459487,13.2646349 C65.0993985,13.2646349 65.4773613,13.191746 65.8550602,13.0464762 C66.233023,12.9009524 66.5352349,12.6101587 66.8374468,12.3193651 C67.1399227,12.0283175 67.3663836,11.6648889 67.5176216,11.2285714 C67.6685955,10.7925079 67.7443465,10.3561905 67.7443465,9.8472381 C67.7443465,9.33828571 67.6685955,8.90196825 67.5176216,8.46565079 C67.3663836,8.02933333 67.1399227,7.66590476 66.8374468,7.37511111 C66.5354989,7.08431746 66.233023,6.86615873 65.8550602,6.648 C65.4773613,6.50273016 65.0993985,6.42984127 64.6459487,6.42984127 C64.1927628,6.42984127 63.8150639,6.50273016 63.4371011,6.72063492 C63.0594022,6.86615873 62.7569264,7.15695238 62.4549784,7.44774603 C62.1525026,7.73853968 61.9257777,8.10222222 61.7745398,8.53853968 C61.6235658,8.90196825 61.5480788,9.41092063 61.5480788,9.8472381 Z M64.7216996,15.8093968 C63.739313,15.8093968 62.9081643,15.663873 62.1525026,15.3004444 C61.3968409,14.9370159 60.7169301,14.5733333 60.1879933,13.9914921 C59.6590565,13.4099048 59.2056067,12.8283175 58.9788818,12.1012063 C58.6764059,11.3740952 58.525432,10.6469841 58.525432,9.8472381 C58.525432,9.04749206 58.6764059,8.32038095 58.9788818,7.59326984 C59.2810937,6.86615873 59.6590565,6.28457143 60.1879933,5.70273016 C60.7169301,5.12114286 61.3968409,4.75746032 62.1525026,4.39403175 C62.9081643,4.1032381 63.8150639,3.88507937 64.7216996,3.88507937 C65.6283353,3.88507937 66.5352349,4.03034921 67.2908967,4.39403175 C68.0465584,4.6848254 68.7264691,5.12114286 69.2554059,5.70273016 C69.7843428,6.28457143 70.2377926,6.86615873 70.4645175,7.59326984 C70.7669933,8.32038095 70.9179673,9.04749206 70.9179673,9.8472381 C70.9179673,10.6469841 70.7669933,11.3740952 70.4645175,12.1012063 C70.1623056,12.8283175 69.7846067,13.4099048 69.2554059,13.9914921 C68.7264691,14.5733333 68.0465584,14.9370159 67.2908967,15.3004444 C66.5352349,15.663873 65.6283353,15.8093968 64.7216996,15.8093968 Z M57.9210082,15.0093968 C57.5430454,15.1549206 57.0141086,15.3730794 56.4094208,15.5186032 C55.804997,15.663873 55.2005732,15.8093968 54.5203985,15.8093968 C54.0669487,15.8093968 53.6895138,15.7365079 53.3115509,15.663873 C52.9335881,15.5912381 52.6313762,15.3730794 52.3291643,15.1549206 C52.0269524,14.9370159 51.7999636,14.6459683 51.6489896,14.2825397 C51.4980156,13.9188571 51.4225286,13.4825397 51.4225286,12.9738413 L51.4225286,6.42984127 L49.8354543,6.42984127 L49.8354543,4.17587302 L51.4225286,4.17587302 L51.4225286,0.46768254 L54.4449115,0.46768254 L54.4449115,4.17587302 L56.9386216,4.17587302 L56.9386216,6.42984127 L54.4449115,6.42984127 L54.4449115,12.0283175 C54.4449115,12.4646349 54.5203985,12.7556825 54.7471234,12.9009524 C54.9738483,13.0464762 55.2005732,13.1191111 55.5785361,13.1191111 C55.955971,13.1191111 56.1829599,13.0464762 56.4851717,12.9738413 C56.7873836,12.9009524 57.0141086,12.7556825 57.2408335,12.6827937 L57.9210082,15.0093968 Z M45.9061717,8.90196825 C45.8306848,8.02933333 45.5284729,7.37511111 44.9240491,6.86615873 C44.3193613,6.35720635 43.6391866,6.0664127 42.8080379,6.0664127 C42.4300751,6.0664127 42.0523762,6.13904762 41.6746773,6.28457143 C41.2967145,6.42984127 40.9945026,6.648 40.7680416,6.86615873 C40.4655658,7.08431746 40.2388409,7.44774603 40.087603,7.73853968 C39.936629,8.02933333 39.7853911,8.46565079 39.7853911,8.90196825 L45.9061717,8.90196825 Z M42.8080379,15.8093968 C41.8256513,15.8093968 40.9945026,15.663873 40.2388409,15.3730794 C39.4831792,15.0822857 38.8030045,14.6459683 38.2740677,14.064381 C37.7451309,13.5554286 37.291945,12.9009524 36.9894691,12.1738413 C36.6875212,11.4467302 36.5360193,10.719873 36.5360193,9.91987302 C36.5360193,9.12012698 36.6875212,8.32038095 36.9894691,7.59326984 C37.291945,6.86615873 37.6696439,6.21168254 38.1985807,5.70273016 C38.7275175,5.12114286 39.4076922,4.75746032 40.1633539,4.39403175 C40.9190156,4.1032381 41.8256513,3.88507937 42.8080379,3.88507937 C43.7904245,3.88507937 44.6215732,4.03034921 45.3772349,4.39403175 C46.1328967,4.6848254 46.8130714,5.12114286 47.3420082,5.70273016 C47.870945,6.21168254 48.2486439,6.86615873 48.5511197,7.59326984 C48.8530677,8.32038095 49.0045695,9.04749206 49.0045695,9.8472381 L49.0045695,10.4288254 C49.0045695,10.5743492 49.0045695,10.719873 48.9285546,10.8651429 L39.7853911,10.8651429 C39.861142,11.3014603 39.936629,11.7375238 40.087603,12.1012063 C40.2388409,12.4646349 40.4655658,12.7556825 40.7680416,12.9738413 C41.0699896,13.191746 41.3724654,13.4099048 41.7501643,13.5554286 C42.1281271,13.7006984 42.505826,13.7733333 42.8835249,13.7733333 C43.4882126,13.7733333 44.0926364,13.6280635 44.6215732,13.3372698 C45.15051,13.0464762 45.5284729,12.6827937 45.7549338,12.2464762 L48.3241309,12.9738413 C47.870945,13.8462222 47.1907703,14.5733333 46.2083836,15.1549206 C45.301484,15.5186032 44.1681234,15.8093968 42.8080379,15.8093968 Z M36.1585844,6.648 C35.2516848,6.648 34.4205361,6.86615873 33.6646104,7.15695238 C32.9092126,7.44774603 32.4557628,7.95669841 32.0780639,8.6111746 L32.0780639,15.5186032 L29.0554171,15.5186032 L29.0554171,4.1032381 L31.8510751,4.1032381 L31.8510751,6.57536508 C32.0780639,6.21168254 32.3045249,5.84825397 32.6070007,5.48457143 C32.9092126,5.19377778 33.2114245,4.90298413 33.5136364,4.6848254 C33.8158483,4.46666667 34.1935472,4.24850794 34.496023,4.17587302 C34.7982349,4.03034921 35.1759338,3.95771429 35.4784097,3.95771429 L36.0828335,3.95771429 L36.0828335,6.648 L36.1585844,6.648 Z M15.6050082,9.8472381 C15.6050082,9.04749206 15.7559822,8.32038095 16.0581941,7.59326984 C16.3604059,6.86615873 16.7383688,6.28457143 17.2673056,5.70273016 C17.7962424,5.19377778 18.4764171,4.75746032 19.2320788,4.39403175 C19.9877405,4.1032381 20.8943762,3.88507937 21.8767628,3.88507937 C23.1613613,3.88507937 24.2947219,4.17587302 25.2016216,4.6848254 C26.1085212,5.19377778 26.788432,5.92088889 27.2416178,6.79352381 L24.2947219,7.66590476 C24.068261,7.2295873 23.6902981,6.93879365 23.3123353,6.72063492 C22.8588855,6.50273016 22.4056996,6.35720635 21.8767628,6.35720635 C21.423313,6.35720635 21.0456141,6.42984127 20.6676513,6.57536508 C20.2899524,6.72063492 19.9877405,7.01142857 19.6855286,7.30222222 C19.3830528,7.59326984 19.1563279,7.95669841 19.0053539,8.39301587 C18.854116,8.82933333 18.778629,9.26539683 18.778629,9.77434921 C18.778629,10.2835556 18.854116,10.719873 19.0053539,11.1559365 C19.1563279,11.592254 19.3830528,11.9556825 19.6855286,12.2464762 C19.9877405,12.5375238 20.2899524,12.7556825 20.6676513,12.9738413 C21.0456141,13.1191111 21.423313,13.191746 21.8767628,13.191746 C22.4056996,13.191746 22.9346364,13.0464762 23.3880862,12.8283175 C23.8415361,12.5375238 24.143748,12.2464762 24.3704729,11.8830476 L27.3173688,12.7556825 C26.9394059,13.6280635 26.2594952,14.3551746 25.2771086,14.864127 C24.3704729,15.4457143 23.2368483,15.663873 21.8767628,15.663873 C20.8943762,15.663873 20.0632275,15.5186032 19.3075658,15.1549206 C18.5519041,14.7914921 17.8717294,14.4278095 17.3430565,13.8462222 C16.8138558,13.2646349 16.3604059,12.6827937 16.0581941,11.9556825 C15.7559822,11.3740952 15.6050082,10.6469841 15.6050082,9.8472381 Z M9.86192639,9.55619048 L7.67069219,3.4487619 L5.32822007,9.55619048 L9.86192639,9.55619048 Z M6.31060669,0.104253968 L9.10652862,0.104253968 L15.2270454,15.5912381 L11.9776736,15.5912381 L10.4666141,11.7375238 L4.87477026,11.7375238 L3.43893383,15.5912381 L0.189826022,15.5912381 L6.31060669,0.104253968 Z" id="Fill-8" fill="#4A4A4A" mask="url(#mask-4)"></path>
                    </g>
                </g>
            </g>
        </g>
    </g>
</svg>