<?xml version="1.0" encoding="UTF-8"?>
<svg width="53px" height="33px" viewBox="0 0 53 33" version="1.1" xmlns="http://www.w3.org/2000/svg" xmlns:xlink="http://www.w3.org/1999/xlink">
    <!-- Generator: sketchtool 52.6 (67491) - http://www.bohemiancoding.com/sketch -->
    <title>E7EC45FC-D200-4FE8-92CD-EF470ED35AC9</title>
    <desc>Created with sketchtool.</desc>
    <g id="Page-1" stroke="none" stroke-width="1" fill="none" fill-rule="evenodd">
        <g id="Ecosystem-list" transform="translate(-472.000000, -325.000000)">
            <g id="Group-7" transform="translate(473.000000, 325.000000)">
                <path d="M33.51,28 C33.51,27.82 33.16,27.7 32.9,27.57 C32.64,27.44 32.59,27.46 32.62,27.66 C32.65,27.86 32.62,28.04 32.49,28.02 C32.36,28 32.36,27.84 32.27,27.76 C32.18,27.68 32.14,27.95 31.79,28 C31.44,28.05 31.37,27.63 31.19,27.59 C31.01,27.55 30.9,27.29 30.78,27.23 C30.7032226,27.1917573 30.6115438,27.1994152 30.5421748,27.2498654 C30.4728058,27.3003156 30.4372735,27.3851748 30.45,27.47 C30.45,27.71 30.87,27.47 30.92,27.52 C30.97,27.57 30.48,27.59 30.33,27.65 C30.18,27.71 29.87,27.55 29.67,27.46 C29.47,27.37 29.24,27.31 29.24,27.05 C29.24,26.79 29.05,27.36 28.87,27.47 C28.69,27.58 28.25,27.61 27.99,27.73 C27.73,27.85 27.78,27.73 27.78,27.61 C27.78,27.49 27.58,27.49 27.47,27.54 C27.36,27.59 27.08,27.41 27.2,27.54 C27.3362279,27.6874692 27.4143881,27.8793168 27.42,28.08 C27.42,28.24 26.42,28.79 26.28,28.85 C26.14,28.91 25.99,28.85 25.66,28.76 C25.33,28.67 25.93,28.97 25.76,29.2 C25.59,29.43 25.47,28.93 25.43,29.28 C25.39,29.63 25.21,29.39 25.01,29.49 C24.81,29.59 25.31,29.64 25.06,29.76 C24.81,29.88 24.82,29.69 24.79,29.88 C24.76,30.07 24.85,30.17 24.79,30.32 C24.73,30.47 24.46,30.32 24.49,30.44 C24.52,30.56 24.77,30.52 24.66,30.94 C24.55,31.36 25.09,31.94 24.91,32.2 C24.73,32.46 24.66,32.06 24.52,32.03 C24.2419951,32.031601 23.9665162,31.9771854 23.71,31.87 C23.5434541,31.7549922 23.3511014,31.6828599 23.15,31.66 C22.92,31.61 22.86,31.55 22.84,31.28 C22.82,31.01 22.59,31.21 22.58,30.84 C22.57,30.47 22.24,30.39 22.17,30.28 C22.1,30.17 22.17,29.97 21.89,29.73 C21.6630246,29.5309434 21.5053971,29.264728 21.44,28.97 C21.3715919,28.6110434 21.167437,28.2922752 20.87,28.08 C20.53,27.83 20.57,27.47 20.35,27.58 C20.13,27.69 20.35,27.58 19.74,27.58 C19.13,27.58 19,27.98 18.92,28.27 C18.877128,28.3725103 18.7925659,28.4518665 18.6875419,28.4881475 C18.5825178,28.5244286 18.4670046,28.5141893 18.37,28.46 C18.27,28.38 18.14,28.25 17.96,28.32 C17.78,28.39 17.87,28.32 17.67,28.11 C17.3626954,27.6831503 17.1605422,27.1897593 17.08,26.67 C16.9837772,26.2932135 16.7382524,25.971865 16.4,25.78 C16.1087026,25.4828025 15.8349085,25.168941 15.58,24.84 C15.45,24.68 15.24,24.48 15.24,24.48 L19.05,24.38 L19.46,18.32 L20.46,18.32 L20.74,13.44 L18.85,13.27 C18.85,13.27 19.26,8.32 19.28,7.98 C19.3,7.64 19.56,4.46 19.64,3.43 C22.91,3.65 25.85,3.64 26.41,3.64 C26.97,3.64 26.79,3.51 26.78,3.39 C26.77,3.27 26.78,3.23 26.99,3.23 C27.2,3.23 27.14,3.84 27.27,3.97 C27.4,4.1 27.67,3.97 27.86,4.04 C28.05,4.11 27.97,4.16 28.18,4.11 C28.39,4.06 28.24,3.95 28.6,3.98 C28.96,4.01 28.96,4.49 29.06,4.4 C29.16,4.31 29.29,4.28 29.35,4.4 C29.41,4.52 29.63,4.52 29.79,4.67 C29.95,4.82 29.96,4.6 30.21,4.49 C30.46,4.38 30.48,4.55 30.61,4.58 C30.74,4.61 30.82,4.5 31.05,4.53 C31.28,4.56 31.24,4.6 31.42,4.69 C31.6,4.78 31.19,4.78 30.95,4.89 C30.6423809,5.05079766 30.3729527,5.27588955 30.16,5.55 C30.08,5.69 29.65,6.03 29.51,6.24 C29.375814,6.37511831 29.3034348,6.55968515 29.31,6.75 C29.31,7.04 29.43,7.15 29.31,7.24 C29.19,7.33 28.84,7.5 28.87,7.72 C28.9,7.94 29.1,7.78 29.02,8.09 C28.944318,8.32403358 28.944318,8.57596642 29.02,8.81 C29.1,9.02 29.58,8.95 29.52,9.06 C29.46,9.17 29.75,9.14 29.77,9.31 C29.79,9.48 30.37,9.71 30.37,10.02 C30.37,10.33 30.55,10.31 30.55,10.54 C30.55,10.77 30.41,10.88 30.55,11.11 C30.69,11.34 31.26,11.26 31.27,11.61 C31.28,11.96 31.64,11.87 31.53,12.21 C31.423802,12.4639742 31.2176038,12.6629373 30.96,12.76 C30.8111532,12.8203408 30.7182343,12.9698191 30.73,13.13 C30.73,13.28 30.88,13.43 30.73,13.61 C30.58,13.79 30.39,13.87 30.42,14.16 C30.4352075,14.4254991 30.4856495,14.6877976 30.57,14.94 C30.66,15.17 30.94,15.09 30.98,15.29 C31.02,15.49 31.24,15.61 31.32,15.86 C31.4,16.11 31.8,15.6 31.77,16.17 C31.74,16.74 31.54,16.88 31.92,17.01 C32.3,17.14 32.47,17.33 32.49,17.66 C32.51,17.99 32.72,18.01 32.83,18.21 C32.9050477,18.4083158 32.9456326,18.6180041 32.95,18.83 C32.95,18.83 32.72,18.68 32.67,18.83 C32.62,18.98 32.5,18.98 32.5,19.2 C32.4748198,19.4224382 32.4347296,19.6429344 32.38,19.86 C32.38,20.07 32.18,20.27 32.16,20.44 C32.1546525,20.6662002 32.0613912,20.8814187 31.9,21.04 C31.72,21.18 31.84,21.45 31.52,21.73 C31.2840152,21.9498938 31.168587,22.270114 31.21,22.59 C31.1611482,22.9215435 31.1611482,23.2584565 31.21,23.59 C31.3,23.79 31.62,23.9 31.49,24.16 C31.3067276,24.4521666 31.143035,24.7561671 31,25.07 C30.94,25.29 30.49,25.7 30.87,25.81 C31.25,25.92 31.28,25.81 31.63,25.81 C31.98,25.81 32.78,25.6 32.8,25.75 C32.82,25.9 32.91,26.16 32.92,26.29 C32.9685703,26.4182552 33.0396903,26.5367885 33.13,26.64 C32.9795741,26.711811 32.8014842,26.6924534 32.67,26.59 C32.28,26.33 32.32,26.59 32.24,26.82 C32.16,27.05 32.57,26.87 32.83,26.91 C33.09,26.95 32.96,26.99 33.22,26.96 C33.48,26.93 33.33,27.19 33.12,27.48 C32.91,27.77 33.67,27.68 33.83,27.84 C33.99,28 33.52,28.19 33.51,28 Z" id="Path" stroke="#FFFFFF" stroke-width="0.5" fill="#DFE9EA" stroke-linecap="round" stroke-linejoin="round"></path>
                <path d="M43.16,32 C43.0570768,31.9913402 42.9609535,31.9450586 42.89,31.87 C42.8294706,31.7611844 42.8294706,31.6288156 42.89,31.52 C42.8236709,31.401077 42.7393399,31.2931333 42.64,31.2 C42.5950301,31.169195 42.5438092,31.1487067 42.49,31.14 C42.2451476,31.0964725 42.0426625,30.9245512 41.96,30.69 L41.96,30.6 L41.75,30.6 C41.6308631,30.5872104 41.5258978,30.515984 41.47,30.41 C41.4244433,30.3012448 41.4244433,30.1787552 41.47,30.07 C41.3,30.01 41.17,29.82 40.99,29.55 C40.9048549,29.434077 40.8592749,29.2938308 40.86,29.15 C40.7708796,29.1316849 40.6881244,29.0903073 40.62,29.03 C40.46,28.85 40.49,28.56 40.53,28.18 C40.5443015,27.9936073 40.5443015,27.8063927 40.53,27.62 C40.53,27.46 40.53,27.45 40.32,27.36 C40.119748,27.2691939 39.936978,27.1439627 39.78,26.99 C39.38,26.6 39.17,26.53 38.96,26.53 L38.82,26.53 C38.7,26.53 38.61,26.65 38.49,26.81 C38.3836306,26.984342 38.216031,27.1127162 38.02,27.17 C37.7510913,27.1658407 37.5091032,27.0058163 37.4,26.76 C37.3381036,26.6558054 37.2878038,26.5451458 37.25,26.43 C37.1535903,26.4399673 37.0564097,26.4399673 36.96,26.43 L36.85,26.43 C36.72,26.43 36.54,26.43 36.45,26.27 L35.85,26.44 L35.26,26.61 L35.02,26.61 C34.9032267,26.5975456 34.8011475,26.5257121 34.75,26.42 L34.69,26.47 C34.4895556,26.5721897 34.2637192,26.6138825 34.04,26.59 L33.59,26.59 L33.5,26.65 C33.4309754,26.7002427 33.3573072,26.7437739 33.28,26.78 L33.18,26.78 C33.1013107,26.78 33.0272136,26.7429515 32.98,26.68 C32.8468474,26.5484249 32.7532994,26.3821175 32.71,26.2 C32.713925,26.1333911 32.713925,26.0666089 32.71,26 L32.71,25.83 C32.5557297,25.8420068 32.4021887,25.8620338 32.25,25.89 L31.77,25.95 L31.53,25.95 L31.3,25.95 C31.1744527,25.9475669 31.0498825,25.9273663 30.93,25.89 C30.7898008,25.8603979 30.6735586,25.7629044 30.62,25.63 C30.5744321,25.4049508 30.637406,25.1715769 30.79,25 C30.8241442,24.9491061 30.8542368,24.8956082 30.88,24.84 C30.9691983,24.6115408 31.083215,24.3935677 31.22,24.19 L31.39,23.89 L31.31,23.8 C31.2278,23.7264736 31.1599817,23.6383098 31.11,23.54 C31.0291733,23.2642663 31.0087089,22.9743538 31.05,22.69 C31.05,22.6 31.05,22.52 31.05,22.46 C31.0063391,22.0659914 31.1552533,21.6750915 31.45,21.41 C31.5476457,21.3293782 31.6118069,21.2153139 31.63,21.09 C31.6521899,20.9371333 31.7306442,20.7980552 31.85,20.7 C31.9508272,20.58303 32.0074454,20.4344072 32.01,20.28 C31.9935434,20.1875984 31.990177,20.0933401 32,20 C32.0403129,19.9277796 32.0705917,19.8504005 32.09,19.77 C32.09,19.68 32.09,19.58 32.15,19.49 C32.1832566,19.3759974 32.203387,19.2585701 32.21,19.14 C32.2051806,18.9920841 32.2591092,18.8482745 32.36,18.74 C32.3967361,18.6103647 32.4934373,18.5062249 32.62,18.46 C32.6087778,18.3942221 32.5885898,18.3302934 32.56,18.27 C32.5328512,18.228154 32.4990769,18.1910023 32.46,18.16 C32.2947649,18.0242855 32.1963112,17.8237316 32.19,17.61 C32.19,17.42 32.12,17.31 31.79,17.19 C31.46,17.07 31.38,16.72 31.42,16.47 C31.4276402,16.3501216 31.4276402,16.2298784 31.42,16.11 L31.32,16.11 C31.166095,16.1109625 31.0307373,16.0084188 30.99,15.86 C30.9571129,15.7787567 30.9096682,15.7042008 30.85,15.64 C30.7566992,15.5368601 30.6882807,15.4137067 30.65,15.28 C30.4697318,15.2509591 30.3179036,15.1294966 30.25,14.96 C30.1540582,14.6859572 30.0968395,14.3998633 30.08,14.11 C30.0571265,13.8727962 30.154777,13.6399375 30.34,13.49 L30.44,13.39 C30.44,13.39 30.44,13.39 30.44,13.27 C30.4360439,13.21674 30.4360439,13.16326 30.44,13.11 C30.4032638,12.8290524 30.5648174,12.5597963 30.83,12.46 C31.0167042,12.3916959 31.168072,12.2511401 31.25,12.07 C31.0903533,11.94278 30.9922143,11.7537714 30.98,11.55 C30.98,11.55 30.83,11.48 30.77,11.45 C30.5825112,11.4156896 30.414759,11.3121829 30.3,11.16 C30.1976962,10.9952285 30.1756299,10.7929541 30.24,10.61 C30.2467267,10.5602262 30.2467267,10.5097738 30.24,10.46 C30.1253201,10.3107065 30.0621596,10.1282428 30.06,9.94 C30.06,9.88 29.87,9.74 29.79,9.68 C29.71,9.62 29.48,9.44 29.46,9.26 C29.3875874,9.2568467 29.3225479,9.21476234 29.29,9.15 C29.0691271,9.14413612 28.86935,9.01735451 28.77,8.82 C28.6797717,8.54043317 28.6797717,8.23956683 28.77,7.96 C28.6806585,7.89244057 28.6228471,7.79127054 28.61,7.68 C28.61,7.35 28.88,7.15 29.07,7.02 C29.0833858,6.91375329 29.0833858,6.80624671 29.07,6.7 C29.0604393,6.4336064 29.1576338,6.17442102 29.34,5.98 C29.4343766,5.89708853 29.5756234,5.89708853 29.67,5.98 L29.9,5.87 C30.0403052,5.79807349 30.1877821,5.74109379 30.34,5.7 L30.45,5.7 L30.65,5.7 C30.7485752,5.7037885 30.8402861,5.75147819 30.9,5.83 C30.9136421,5.87906946 30.9136421,5.93093054 30.9,5.98 L31.04,5.9 C31.1401659,5.82620762 31.256916,5.77813406 31.38,5.76 C31.5429722,5.69161799 31.6973604,5.60435506 31.84,5.5 L31.93,5.44 L32,5.34 C32.1213205,5.11436137 32.3202537,4.94029488 32.56,4.85 C32.6534421,4.8182115 32.7513078,4.80133811 32.85,4.8 C32.9908411,4.79174305 33.1221488,4.87132348 33.18,5 C33.2360316,5.16448609 33.1794571,5.3463326 33.04,5.45 L32.96,5.52 C33.219654,5.57387691 33.4405586,5.74323707 33.56,5.98 L33.64,5.98 C33.7530039,5.97645679 33.8654755,5.99690618 33.97,6.04 C34.1083855,5.86333141 34.3084042,5.74546328 34.53,5.71 C34.6871312,5.68469037 34.8391093,5.63403099 34.98,5.56 L35.16,5.48 L35.29,5.48 C35.52,5.48 35.6,5.67 35.63,5.82 C35.7557911,5.75999932 35.8912169,5.72275723 36.03,5.71 C36.1166087,5.71280592 36.1988778,5.74857511 36.26,5.81 C36.3097658,5.87564901 36.3313547,5.95840652 36.32,6.04 C36.3283636,6.1174149 36.3597089,6.19055403 36.41,6.25 C36.5185929,6.37329854 36.5494426,6.54682848 36.49,6.7 C36.4389717,6.79541949 36.3466776,6.86187125 36.24,6.88 C36.3428929,6.93339634 36.4547749,6.96729999 36.57,6.98 C36.7697352,6.99065928 36.9569379,7.08066057 37.09,7.23 C37.1884859,7.3592581 37.2077101,7.53227568 37.14,7.68 C37.2393417,7.83527127 37.316741,8.00353065 37.37,8.18 C37.4321459,8.33134823 37.405183,8.50468071 37.3,8.63 C37.3757921,8.59726382 37.4574407,8.58025369 37.54,8.58 C37.84,8.58 37.98,8.83 38.09,9.02 L38.16,9.13 C38.3114481,9.4217036 38.400022,9.74193231 38.42,10.07 L38.42,10.2 C38.4568569,10.3513775 38.4277829,10.5112843 38.34,10.64 C38.2712493,10.7034956 38.1832613,10.7422104 38.09,10.75 C37.9706013,11.0165094 37.8930227,11.2998401 37.86,11.59 C37.86,11.59 37.97,11.7 38.34,11.7 L38.49,11.7 C38.6049166,11.6923988 38.7171359,11.6617935 38.82,11.61 L39.06,11.53 C39.1211754,11.4744244 39.178008,11.4142487 39.23,11.35 C39.3819124,11.1609484 39.5644418,10.9987 39.77,10.87 C40.2267005,10.5681989 40.6611501,10.2340069 41.07,9.87 C41.0774304,9.80354037 41.0774304,9.73645963 41.07,9.67 C41.0227373,9.52783472 40.9958043,9.37970317 40.99,9.23 C40.99,8.7 41.61,8.69 42.22,8.68 L42.61,8.68 C42.7223592,8.6883318 42.8351519,8.671242 42.94,8.63 C42.9918634,8.50210807 43.0784575,8.39126766 43.19,8.31 C43.2396699,8.28155515 43.2837263,8.24427669 43.32,8.2 C43.3285786,8.13026283 43.3285786,8.05973717 43.32,7.99 C43.2822169,7.89119803 43.2651964,7.78567079 43.27,7.68 C43.286009,7.55751325 43.3382419,7.44260082 43.42,7.35 C43.4934862,7.25837936 43.5478883,7.15297524 43.58,7.04 C43.7116667,6.6676683 43.96087,6.34826693 44.29,6.13 C44.5125926,6.01022186 44.7579172,5.93866887 45.01,5.92 C45.114869,5.90896871 45.2185883,5.888894 45.32,5.86 C45.8480298,5.68216703 46.3898822,5.54837631 46.94,5.46 L47,5.46 C46.9901641,5.26868572 47.102526,5.09211706 47.28,5.02 C47.3505424,4.96922114 47.4279959,4.9288106 47.51,4.9 C47.5387876,4.7706227 47.5859316,4.64602781 47.65,4.53 C47.6950243,4.42460724 47.6950243,4.30539276 47.65,4.2 L47.65,4.04 C47.6258791,3.91111888 47.6258791,3.77888112 47.65,3.65 C47.6573338,3.61033616 47.6573338,3.56966384 47.65,3.53 C47.6198733,3.14836452 47.7108537,2.76694652 47.91,2.44 C48.01,2.22 48.14,2.01 48.38,2.01 C48.4707449,2.01285532 48.5582576,2.04435989 48.63,2.1 C48.7629535,1.95758728 48.9455218,1.87167277 49.14,1.86 C49.65,1.86 49.9,2.51 50.14,3.12 C50.1926354,3.30835761 50.2808951,3.48487714 50.4,3.64 C50.66,3.64 50.7,3.91 50.72,4.08 C50.74,4.25 50.72,4.18 50.72,4.22 C50.8477287,4.22405644 50.9677088,4.28222861 51.05,4.38 L51.15,4.48 C51.2925792,4.58627436 51.3592013,4.76654587 51.32,4.94 C51.32,5.22 50.98,5.36 50.72,5.46 L50.55,5.54 C50.437061,5.68896391 50.2846283,5.80328841 50.11,5.87 C50.0610752,5.92534414 50.0036986,5.97259544 49.94,6.01 L49.87,6.01 C49.8548115,6.12157137 49.8314147,6.23187057 49.8,6.34 C49.7731507,6.48618824 49.6758472,6.60968884 49.54,6.67 C49.5015495,6.76313925 49.4189089,6.83075428 49.32,6.85 C49.2968912,6.91144453 49.2548732,6.96396697 49.2,7 C49.1415605,7.03306941 49.0768329,7.05350972 49.01,7.06 C48.9469131,7.15935627 48.9091443,7.27266287 48.9,7.39 C48.9017222,7.49314356 48.8812603,7.59545293 48.84,7.69 C48.8196023,7.77546648 48.8196023,7.86453352 48.84,7.95 C48.84,7.95 48.84,8.01 48.84,8.02 C48.9223132,8.05767247 48.9868286,8.12577209 49.02,8.21 C49.0499913,8.33800009 49.0078236,8.4721703 48.91,8.56 C49.0019177,8.59405683 49.0866945,8.64492286 49.16,8.71 L49.28,8.82 C49.2884124,8.77015132 49.3130139,8.72446282 49.35,8.69 C49.4018948,8.64172652 49.469205,8.61338539 49.54,8.61 C49.5789497,8.59703675 49.6210503,8.59703675 49.66,8.61 C49.82,8.74 50.02,8.95 49.97,9.2 C49.9187804,9.38617772 49.7686139,9.52864336 49.58,9.57 C49.5341717,9.6871577 49.4736905,9.79803986 49.4,9.9 C49.3249794,9.99751604 49.2125566,10.0591673 49.09,10.07 C48.9809989,10.0585517 48.8842008,9.99526058 48.83,9.9 L48.71,9.9 L48.61,9.9 C48.5928962,9.99250642 48.5514785,10.0787934 48.49,10.15 C48.4075972,10.2328102 48.3088271,10.2975217 48.2,10.34 C48.2331056,10.3547475 48.2609884,10.379145 48.28,10.41 C48.3065387,10.5300239 48.2849996,10.6556684 48.22,10.76 C47.7677401,11.149222 47.2449385,11.4479657 46.68,11.64 C46.7300829,11.7852748 46.7603554,11.9366375 46.77,12.09 C46.77,12.18 46.77,12.27 46.77,12.35 C46.8035983,12.5828485 46.7540259,12.8200879 46.63,13.02 C46.6063366,13.0615468 46.5862637,13.105038 46.57,13.15 C46.5023816,13.4181081 46.3642749,13.6632476 46.17,13.86 C46.3270699,14.1748301 46.3270699,14.5451699 46.17,14.86 C46.11,15.05 46.08,15.2 46.04,15.35 C45.9942837,15.5496581 45.9375298,15.7466272 45.87,15.94 C45.8378357,16.0544668 45.7575642,16.1493332 45.65,16.2 C45.8743935,16.2715357 46.0111932,16.4981101 45.97,16.73 C45.9648031,16.7664825 45.9648031,16.8035175 45.97,16.84 C46.0475967,16.9466135 46.0732876,17.0824084 46.04,17.21 C46.1937029,17.256259 46.3207777,17.3651802 46.39,17.51 C46.4824569,17.6566433 46.4824569,17.8433567 46.39,17.99 L46.3,18.12 C46.2,18.27 46.07,18.47 45.85,18.49 C45.8628004,18.5357889 45.8628004,18.5842111 45.85,18.63 C46.0129722,18.8122084 46.0129722,19.0877916 45.85,19.27 C45.7307425,19.3553069 45.5941842,19.4133441 45.45,19.44 C45.2940251,19.4740955 45.1451499,19.534999 45.01,19.62 C44.9,19.78 44.8,19.9 44.69,20.03 L44.53,20.23 C44.5445948,20.3646589 44.5089871,20.4999679 44.43,20.61 C44.3407889,20.6930376 44.2217115,20.7363385 44.1,20.73 C44.02,20.73 43.96,20.8 43.83,20.96 C43.7445323,21.0763044 43.6473568,21.1835326 43.54,21.28 C43.5769799,21.3180604 43.6073924,21.3619896 43.63,21.41 C43.74,21.66 43.53,21.85 43.37,22.01 C43.3074235,22.0677864 43.2504992,22.1314076 43.2,22.2 C43.1001925,22.3350017 42.9700175,22.4446227 42.82,22.52 C42.7500935,22.5570166 42.6860636,22.6041966 42.63,22.66 C42.5435483,22.7574849 42.4277123,22.8241783 42.3,22.85 C42.21,22.94 42.21,22.97 42.21,23.04 C42.2130053,23.3492192 42.0945066,23.6472615 41.88,23.87 C41.62,24.19 41.72,24.51 41.94,25.14 L42.05,25.46 C42.1947031,25.8624023 42.4004421,26.2401525 42.66,26.58 C42.748201,26.6957782 42.8252131,26.8196671 42.89,26.95 C42.9181786,27.0174005 42.9383174,27.0878864 42.95,27.16 C43.0763395,27.5916373 43.2833237,27.9954261 43.56,28.35 C44.4,29.67 44.4,30.41 44.25,30.8 C44.21567,30.8902348 44.1921722,30.9842257 44.18,31.08 C44.167695,31.2821838 44.0781983,31.4719168 43.93,31.61 C43.7179685,31.8023546 43.4459108,31.9154176 43.16,31.93 L43.16,32 Z M45.38,16.23 L45.5,16.23 L45.43,16.18 L45.38,16.23 Z M45.06,14.83 C45.1221697,14.873394 45.1792028,14.9237173 45.23,14.98 L45.05,14.88 L45.06,14.83 Z M34.06,7.5 C34.1826635,7.51772963 34.2775038,7.61669342 34.29,7.74 C34.285758,7.87219332 34.2441515,8.00048005 34.17,8.11 C34.0906445,8.25503713 34.0301542,8.40962324 33.99,8.57 C33.99,8.68 33.99,8.76 33.99,8.82 C33.9737553,8.97972813 33.9297621,9.13539634 33.86,9.28 C33.86,9.37 33.86,9.38 33.86,9.44 C33.903386,9.55474905 33.9204723,9.67777063 33.91,9.8 C33.8975173,9.9325108 33.8706936,10.063276 33.83,10.19 C33.8012119,10.3048908 33.8012119,10.4251092 33.83,10.54 L33.83,10.69 C33.9096614,10.9280583 33.9336097,11.1812268 33.9,11.43 C33.9959035,11.6532203 34.1276393,11.8592687 34.29,12.04 C34.3583342,11.9684394 34.4398204,11.91072 34.53,11.87 C34.7095896,11.6341577 34.8078389,11.3464276 34.81,11.05 C34.7965,10.707642 34.6816462,10.377002 34.48,10.1 C34.3596592,9.93155318 34.3297533,9.71473476 34.4,9.52 C34.3120537,9.2836863 34.36209,9.0181089 34.53,8.83 C34.4859214,8.66285724 34.4859214,8.48714276 34.53,8.32 C34.6233853,8.02944436 34.8443425,7.79743923 35.13,7.69 C35.1267764,7.66008659 35.1267764,7.62991341 35.13,7.6 C35.154788,7.4691997 35.2401203,7.35789667 35.36,7.3 C35.3413709,7.22784977 35.3413709,7.15215023 35.36,7.08 C35.3919487,7.00415576 35.4396724,6.93597905 35.5,6.88 C35.4505875,6.86915981 35.3994125,6.86915981 35.35,6.88 C35.2415359,7.06112599 35.0507248,7.17710921 34.84,7.19 C34.7224092,7.28313478 34.579592,7.3388683 34.43,7.35 L34.33,7.35 C34.2255659,7.40162881 34.1145246,7.43864258 34,7.46 L34.06,7.5 Z" id="Shape" fill="#72E1C4" fill-rule="nonzero"></path>
                <path d="M49.26,2 C49.55,2 49.77,2.55 49.94,3.08 C50.11,3.61 50.3,3.79 50.41,3.79 L50.48,3.79 C50.55,3.79 50.55,4.09 50.61,4.28 C50.67,4.47 50.67,4.38 50.72,4.38 L50.82,4.38 C50.8829515,4.38 50.9422291,4.40963883 50.98,4.46 C51.14,4.64 51.21,4.61 51.19,4.82 C51.17,5.03 50.59,5.16 50.5,5.27 C50.41,5.38 50.24,5.53 50.18,5.53 C50.12,5.53 50.18,5.53 50.18,5.53 C50.18,5.53 50.18,5.53 50.18,5.53 C50.1234848,5.62115144 50.0485509,5.6994914 49.96,5.76 L49.87,5.76 C49.8,5.76 49.87,5.64 49.87,5.49 C49.87,5.34 49.87,5.49 49.87,5.49 C49.8504078,5.75273218 49.8102853,6.0135283 49.75,6.27 C49.75,6.4 49.67,6.44 49.63,6.44 C49.59,6.44 49.55,6.44 49.53,6.44 C49.51,6.44 49.53,6.44 49.53,6.51 C49.53,6.58 49.53,6.67 49.46,6.67 C49.4063602,6.66068883 49.3552641,6.64025038 49.31,6.61 C49.26,6.61 49.39,6.81 49.31,6.87 L49.26,6.87 C49.2,6.87 49.15,6.82 49.11,6.82 C49.07,6.82 49.11,6.82 49.11,6.82 C48.9997677,6.99630537 48.9281921,7.19399039 48.9,7.4 C48.9,7.68 48.81,7.53 48.82,7.97 C48.82,8.22 48.88,8.25 48.93,8.25 C48.93,8.25 48.93,8.25 48.93,8.25 C48.93,8.25 48.72,8.46 48.67,8.6 C48.62,8.74 48.94,8.68 49.15,8.87 C49.36,9.06 49.42,9.18 49.55,9.18 L49.64,9.18 C49.82,9.1 49.64,8.84 49.64,8.84 C49.97,9.12 49.92,9.28 49.64,9.38 C49.36,9.48 49.47,9.65 49.36,9.77 C49.25,9.89 49.26,9.86 49.23,9.86 C49.2,9.86 49.18,9.86 49.18,9.74 C49.18,9.62 49.26,9.51 49.27,9.34 C49.28,9.17 49.27,9.34 49.27,9.34 C49.27,9.34 48.97,9.75 48.85,9.76 C48.73,9.76 48.85,9.57 48.71,9.57 C48.54,9.57 48.61,9.95 48.49,10.07 C48.2860789,10.2229184 48.0437905,10.3163725 47.79,10.34 C47.4417912,10.4270759 47.1386541,10.641055 46.94,10.94 C46.94,11.02 46.94,11.04 46.94,11.04 C46.94,11.04 47.14,10.98 47.19,10.98 C47.24,10.98 47.61,10.65 47.86,10.47 C47.8914544,10.441651 47.9291357,10.4210976 47.97,10.41 C48.03,10.41 47.97,10.57 48.03,10.61 L48.18,10.61 C48.18,10.61 48.18,10.61 48.18,10.71 C47.7498583,11.0554668 47.2624808,11.3228475 46.74,11.5 C46.45,11.55 46.34,11.6 46.52,11.69 C46.7,11.78 46.67,12.2 46.73,12.48 C46.79,12.76 46.58,12.99 46.53,13.17 C46.48,13.35 46.3,13.74 46.19,13.75 C46.09,13.75 46.19,13.5 45.95,13.44 C45.71,13.38 46.02,13.36 45.66,13.28 L45.53,13.28 C45.45,13.28 45.7,13.39 45.7,13.55 C45.7,13.71 45.91,13.74 46.13,14.04 C46.35,14.34 46.25,14.59 46.13,14.94 C46.01,15.29 45.95,15.71 45.85,15.94 C45.85,16.02 45.78,16.06 45.75,16.06 C45.72,16.06 45.66,15.95 45.67,15.81 C45.68,15.67 45.73,15.24 45.62,15.12 C45.51,15 45.62,15.06 45.62,14.99 C45.62,14.92 45.3,14.69 45.14,14.63 C44.98,14.57 45.06,14.3 45.02,14.08 C44.9893029,13.8175613 44.9893029,13.5524387 45.02,13.29 C45.02,13.29 45.02,13.23 45.02,13.23 C44.8118956,13.3681945 44.6996491,13.6120403 44.73,13.86 C44.83,14.15 44.67,14.4 44.73,14.58 C44.79,14.76 44.93,14.89 44.87,14.89 L44.78,14.89 C44.71426,14.8742806 44.64574,14.8742806 44.58,14.89 C44.4319567,14.8981772 44.2864598,14.9320137 44.15,14.99 L44.27,14.99 C44.6271638,14.9607834 44.9755609,15.1106316 45.2,15.39 C45.35,15.64 45.28,15.7 45.2,15.7 C45.1172891,15.693066 45.0362433,15.6728045 44.96,15.64 C45.0207416,15.7100265 45.0915074,15.770683 45.17,15.82 C45.32,15.92 45.31,16.11 45.24,16.28 C45.2189463,16.3264692 45.1708131,16.3545469 45.12,16.35 C45.0139627,16.3386724 44.9116264,16.3045603 44.82,16.25 C44.9544183,16.3617265 45.0782735,16.4855817 45.19,16.62 C45.2151709,16.6562078 45.2559302,16.6784401 45.3,16.68 C45.4,16.68 45.51,16.58 45.67,16.58 L45.77,16.58 C46.05,16.66 45.84,16.93 45.96,17.12 C46.08,17.31 45.96,17.37 45.77,17.45 C45.58,17.53 45.64,17.69 45.77,17.69 C45.84,17.69 45.92,17.69 45.99,17.69 C46.0320646,17.6907692 46.0708836,17.6674778 46.09,17.63 C46.1058727,17.6227247 46.1241273,17.6227247 46.14,17.63 C46.25,17.63 46.45,17.86 46.33,18.02 C46.21,18.18 46.1,18.42 45.95,18.42 L45.83,18.42 C45.62,18.42 45.28,18.5 45.63,18.67 C45.98,18.84 45.42,18.81 45.22,18.97 C45.02,19.13 45.17,19.05 45.22,19.05 C45.3735342,19.0352526 45.5246701,19.0016668 45.67,18.95 C45.81,18.95 45.87,19.19 45.77,19.29 C45.67,19.39 45.04,19.45 44.89,19.68 C44.74,19.91 44.59,20.06 44.42,20.28 C44.25,20.5 44.5,20.67 44.18,20.68 C43.86,20.69 43.75,21.05 43.47,21.29 C43.19,21.53 43.47,21.57 43.47,21.71 C43.47,21.85 43.19,22.06 43.06,22.26 C42.93,22.46 42.67,22.52 42.52,22.69 C42.37,22.86 42.2,22.69 42.08,22.99 C41.96,23.29 42.18,23.39 41.76,23.91 C41.34,24.43 41.63,24.91 41.89,25.74 C42.1130547,26.2749653 42.3983541,26.7817913 42.74,27.25 C42.8596931,27.7743555 43.0992967,28.2638313 43.44,28.68 C44.22,29.91 44.23,30.59 44.11,30.9 C43.99,31.21 44.11,31.42 43.86,31.61 C43.6843247,31.7699395 43.4574451,31.8621093 43.22,31.87 L43.16,31.87 C42.98,31.87 43.16,31.67 43.16,31.58 C43.0747639,31.4162978 42.963288,31.2676632 42.83,31.14 C42.64,30.96 42.34,31.08 42.21,30.72 C42.08,30.36 42.1,30.47 42.01,30.47 L41.77,30.47 C41.46,30.47 41.94,29.89 41.77,29.89 C41.7056098,29.9169245 41.6385778,29.9370341 41.57,29.95 C41.48,29.95 41.4,29.87 41.17,29.52 C40.8,28.96 41.7,29.1 41.26,28.82 C41.2015646,28.7743138 41.1329479,28.7434362 41.06,28.73 C40.93,28.73 41.06,29 40.85,29 C40.64,29 40.85,28.22 40.78,27.71 C40.71,27.2 40.4,27.36 39.95,26.92 C39.7063719,26.6086419 39.343971,26.4129454 38.95,26.38 L38.78,26.38 C38.37,26.44 38.25,26.96 37.97,27.02 C37.71,27.02 37.47,26.48 37.47,26.31 C37.47,26.14 37.47,26.24 37.41,26.24 C37.2652711,26.274207 37.118199,26.2976048 36.97,26.31 L36.88,26.31 C36.49,26.31 36.75,26.21 36.88,26.07 C37.01,25.93 36.88,26.07 36.88,26.07 C36.69,26.07 35.53,26.45 35.25,26.51 L35.07,26.51 C35,26.51 35.07,26.46 34.98,26.36 C34.89,26.26 34.98,26.1 34.84,25.98 C34.77,25.98 34.78,26.32 34.63,26.43 C34.4677409,26.492615 34.2931291,26.5165813 34.12,26.5 L33.9,26.5 C33.7970941,26.4867083 33.6929059,26.4867083 33.59,26.5 C33.49,26.5 33.39,26.64 33.26,26.7 C33.1696903,26.5967885 33.0985703,26.4782552 33.05,26.35 C33.05,26.23 32.94,25.97 32.93,25.81 C32.92,25.65 32.86,25.75 32.77,25.75 C32.51,25.75 32.02,25.86 31.77,25.87 C31.52,25.88 31.45,25.92 31.31,25.92 C31.2081547,25.9174351 31.107172,25.9006046 31.01,25.87 C30.63,25.76 31.08,25.35 31.14,25.13 C31.2830613,24.8161802 31.446753,24.5121814 31.63,24.22 C31.77,23.96 31.45,23.85 31.35,23.65 C31.3011482,23.3184565 31.3011482,22.9815435 31.35,22.65 C31.308587,22.330114 31.4240152,22.0098938 31.66,21.79 C31.98,21.51 31.86,21.24 32.04,21.1 C32.2013912,20.9414187 32.2946525,20.7262002 32.3,20.5 C32.3,20.33 32.49,20.13 32.52,19.92 C32.5747296,19.7029344 32.6148198,19.4824382 32.64,19.26 C32.64,19.04 32.76,19.04 32.81,18.89 C32.8195095,18.848216 32.8571608,18.8189316 32.9,18.82 C32.964623,18.8290341 33.0262522,18.853001 33.08,18.89 C33.0745052,18.6813744 33.0339387,18.4751612 32.96,18.28 C32.85,18.08 32.64,18.05 32.62,17.73 C32.6,17.41 32.44,17.22 32.05,17.08 C31.66,16.94 31.87,16.8 31.9,16.24 C31.9,16.01 31.9,15.96 31.78,15.96 C31.66,15.96 31.62,15.96 31.55,15.96 C31.5071608,15.9610684 31.4695095,15.931784 31.46,15.89 C31.38,15.64 31.17,15.52 31.12,15.32 C31.07,15.12 30.8,15.2 30.71,14.97 C30.6256495,14.7177976 30.5752075,14.4554991 30.56,14.19 C30.56,13.9 30.73,13.82 30.87,13.64 C31.01,13.46 30.87,13.32 30.87,13.16 C30.8582343,12.9998191 30.9511532,12.8503408 31.1,12.79 C31.3576038,12.6929373 31.563802,12.4939742 31.67,12.24 C31.78,11.9 31.42,11.99 31.41,11.64 C31.4,11.29 30.83,11.37 30.69,11.14 C30.55,10.91 30.69,10.8 30.69,10.57 C30.69,10.34 30.51,10.35 30.51,10.05 C30.51,9.75 29.93,9.51 29.91,9.34 C29.89,9.17 29.6,9.2 29.66,9.09 C29.72,8.98 29.23,9.09 29.16,8.84 C29.084318,8.60596642 29.084318,8.35403358 29.16,8.12 C29.24,7.81 29.04,7.97 29.01,7.75 C28.98,7.53 29.33,7.37 29.45,7.27 C29.57,7.17 29.45,7.07 29.45,6.78 C29.4434348,6.58968515 29.515814,6.40511831 29.65,6.27 C29.65,6.33 29.59,6.38 29.65,6.4 L29.72,6.4 C30.0195422,6.3034423 30.31335,6.18992565 30.6,6.06 L30.85,6.01 C30.9,6.01 30.91,6.01 30.85,6.14 C30.79,6.27 30.64,6.32 30.78,6.4 L30.87,6.4 C30.96,6.4 31.04,6.32 31.2,6.26 C31.36,6.2 31.48,6.07 31.65,6.05 C31.8839739,5.96432293 32.1032461,5.84287988 32.3,5.69 C32.44,5.6 32.53,5.24 32.87,5.13 C32.9396238,5.11973681 33.0103762,5.11973681 33.08,5.13 C33.23,5.13 33.22,5.23 33.08,5.36 C32.94,5.49 32.51,5.59 32.64,5.78 C32.77,5.97 32.72,6 32.78,6 C32.8492058,5.98440887 32.9140955,5.95367168 32.97,5.91 C33.0190695,5.89635789 33.0709305,5.89635789 33.12,5.91 C33.34,5.91 33.53,6.19 33.6,6.33 C33.67,6.47 33.66,6.42 33.68,6.42 C33.7482302,6.39165947 33.8184115,6.36826571 33.89,6.35 L33.94,6.35 C34.08,6.35 34.17,6.43 34.26,6.43 L34.32,6.43 C34.44,6.37 34.55,6.12 34.8,6.1 C35.0442151,6.05102794 35.2800141,5.96681402 35.5,5.85 C35.64,5.85 35.6,6.18 35.66,6.24 C35.77,6.24 36.13,6.05 36.25,6.05 C36.37,6.05 36.25,6.05 36.25,6.05 C36.25,6.05 36.25,6.2 36.38,6.45 C36.51,6.7 36.44,6.71 36.18,6.71 L36,6.71 C35.77,6.71 35.75,6.81 35.7,6.81 L35.63,6.81 C35.530128,6.73054649 35.4075233,6.68500759 35.28,6.68 C35.1871261,6.67486083 35.1002996,6.72616738 35.06,6.81 C34.96,7.04 34.62,6.96 34.54,7.07 C34.4934765,7.12017627 34.4284198,7.14909034 34.36,7.15 C34.3,7.15 34.25,7.15 34.27,7.03 C34.29,6.91 34.27,7.03 34.27,7.03 C34.27,7.03 33.92,7.44 33.89,7.44 C33.86,7.44 33.89,7.44 33.89,7.44 C33.91003,7.35449065 33.91003,7.26550935 33.89,7.18 C33.8426095,7.36335208 33.775554,7.54104925 33.69,7.71 C33.6088057,7.86486559 33.5386317,8.0252633 33.48,8.19 C33.41,8.36 33.1,8.6 33.15,8.89 C33.15,8.94 33.15,8.97 33.15,8.97 C33.15,8.97 33.38,8.56 33.49,8.46 C33.6,8.36 33.91,7.9 33.97,7.9 C33.97,8 33.74,8.31 33.67,8.66 C33.6546652,8.88646753 33.6040554,9.10915078 33.52,9.32 C33.39,9.63 33.52,9.63 33.52,9.92 C33.52,10.21 33.34,10.45 33.4,10.73 C33.4846235,10.9808202 33.5186138,11.2459442 33.5,11.51 C33.45,11.72 33.95,12.41 34.08,12.51 C34.2,12.51 34.33,12.3 34.45,12.26 C34.8477515,11.9704064 35.0580783,11.4885669 35,11 C34.9835978,10.5885631 34.8442714,10.1914828 34.6,9.86 C34.47,9.64 34.6,9.52 34.6,9.41 C34.5185684,9.24976141 34.5510009,9.05516681 34.68,8.93 C34.86,8.68 34.61,8.65 34.68,8.33 C34.7484437,8.11040266 34.9204027,7.93844372 35.14,7.87 C35.14,7.87 35.19,7.87 35.14,7.96 C35.09,8.05 35.14,8.16 35.14,8.16 C35.17907,8.15658944 35.2114333,8.12827153 35.22,8.09 C35.22,7.98 35.34,8.09 35.43,7.96 C35.52,7.83 35.23,7.78 35.27,7.6 C35.31,7.42 35.63,7.45 35.53,7.3 C35.43,7.15 35.6,6.96 35.75,6.93 L35.88,6.93 C36.0158614,6.94060279 36.14511,6.99300087 36.25,7.08 C36.51,7.25 36.92,7.19 37.04,7.37 C37.16,7.55 37.04,7.58 37.04,7.75 C37.04,7.92 37.2,7.91 37.29,8.25 C37.38,8.59 37.16,8.37 37.15,8.62 C37.14,8.87 37.08,8.8 36.9,9.01 C36.8418588,9.07754999 36.8279769,9.17260914 36.8643728,9.25396479 C36.9007688,9.33532043 36.9808899,9.38832559 37.07,9.39 L37.17,9.39 C37.39,9.29 37.17,9.11 37.49,8.92 C37.5561904,8.87834432 37.6319085,8.85425222 37.71,8.85 C37.89,8.85 37.97,9.05 38.11,9.29 C38.2602733,9.60293501 38.3453306,9.943164 38.36,10.29 C38.36,10.49 38.36,10.56 38.27,10.56 C38.2372647,10.5689293 38.2027353,10.5689293 38.17,10.56 C38.05,10.56 37.8,11.29 37.78,11.68 C37.76,12.07 38.21,12.05 38.51,12.05 L38.66,12.05 C38.877747,12.0214905 39.0900588,11.96083 39.29,11.87 C39.48,11.82 39.69,11.4 40.07,11.18 C40.5401593,10.8793621 40.987991,10.5451593 41.41,10.18 C41.62,10 41.41,9.7 41.41,9.35 C41.41,9 42.09,9.07 42.78,9.04 C43.47,9.01 43.22,8.82 43.5,8.62 C43.78,8.42 43.74,8.35 43.73,8.2 C43.72,8.05 43.64,7.94 43.65,7.8 C43.66,7.66 43.87,7.54 43.96,7.22 C44.0751065,6.90433986 44.2890512,6.63427854 44.57,6.45 C44.8,6.29 45.37,6.29 45.57,6.2 C46.0726575,6.03343377 46.5875565,5.90638077 47.11,5.82 C47.36,5.82 47.39,5.77 47.39,5.56 C47.39,5.35 47.5,5.39 47.61,5.31 C47.72,5.23 47.75,5.31 47.81,5.19 C47.87,5.07 47.88,5.01 48.01,4.76 C48.14,4.51 48.06,4.36 48.01,4.12 C47.96,3.88 48.09,3.75 48.01,3.59 C47.9990015,3.26203726 48.0860428,2.93824348 48.26,2.66 C48.37,2.43 48.44,2.37 48.51,2.37 C48.58,2.37 48.65,2.46 48.72,2.46 C48.79,2.46 48.99,2.24 49.29,2.21 L49.26,2 Z M49.28,1.71 L49.22,1.71 C49.0235915,1.72600532 48.8344074,1.79135985 48.67,1.9 C48.6070687,1.88990857 48.5429313,1.88990857 48.48,1.9 C48.05,1.9 47.85,2.32 47.78,2.48 C47.5595175,2.84690065 47.4582006,3.27313069 47.49,3.7 C47.4612192,3.85534485 47.4612192,4.01465515 47.49,4.17 C47.49,4.23 47.49,4.29 47.49,4.34 C47.49,4.39 47.49,4.47 47.49,4.51 C47.4372244,4.61046427 47.390475,4.71398063 47.35,4.82 L47.24,4.89 C47.0424883,4.96206122 46.8929671,5.12653456 46.84,5.33 C46.3067547,5.42086419 45.7817157,5.55463208 45.27,5.73 L45.03,5.73 C44.7418099,5.75308559 44.4620509,5.83837799 44.21,5.98 C43.8443351,6.22039207 43.5642609,6.57048477 43.41,6.98 C43.3858611,7.06395114 43.3450483,7.1421755 43.29,7.21 C43.1780401,7.33938558 43.1082616,7.49987601 43.09,7.67 C43.0825447,7.80602836 43.1029623,7.94214559 43.15,8.07 C43.0338911,8.15022337 42.9380324,8.25635269 42.87,8.38 L42.32,8.38 C41.73,8.38 40.85,8.38 40.85,9.18 C40.8555363,9.35342096 40.885843,9.52515917 40.94,9.69 C40.5778812,10.0131105 40.1936106,10.3105026 39.79,10.58 C39.5582862,10.7210752 39.3520544,10.9002602 39.18,11.11 L39.07,11.23 L38.86,11.31 C38.7851901,11.3484101 38.703729,11.3721696 38.62,11.38 L38.27,11.38 C38.3013904,11.2235399 38.3448537,11.0697465 38.4,10.92 C38.5125327,10.8904454 38.6135756,10.8277291 38.69,10.74 C38.825883,10.5564311 38.8768286,10.3235371 38.83,10.1 L38.83,9.97 C38.7989167,9.61975845 38.6968432,9.27951358 38.53,8.97 L38.47,8.86 C38.3463672,8.58285889 38.1035744,8.37685284 37.81,8.3 C37.8180912,8.22688985 37.8180912,8.15311015 37.81,8.08 C37.7682107,7.91838305 37.6970242,7.76584064 37.6,7.63 C37.6520643,7.42994994 37.6116954,7.21709564 37.49,7.05 C37.3500367,6.86352636 37.1410821,6.74103571 36.91,6.71 C36.9882497,6.48261207 36.9386363,6.23072858 36.78,6.05 L36.78,5.99 C36.7923396,5.85091496 36.7531976,5.71213864 36.67,5.6 C36.5654239,5.47709006 36.4113574,5.40739334 36.25,5.41 C36.1473521,5.41311605 36.0459504,5.4333964 35.95,5.47 C35.8513658,5.29904288 35.6673194,5.19551682 35.47,5.2 C35.3970548,5.18932979 35.3229452,5.18932979 35.25,5.2 L35.05,5.29 C34.9370118,5.35072485 34.8157175,5.3945256 34.69,5.42 C34.4627255,5.44522247 34.2509603,5.54757566 34.09,5.71 C34.0136635,5.69993792 33.9363365,5.69993792 33.86,5.71 L33.8,5.71 C33.7162667,5.59781101 33.6149622,5.49988325 33.5,5.42 C33.6064417,5.2362137 33.6039192,5.00894751 33.4934243,4.82756912 C33.3829294,4.64619072 33.1821353,4.53971066 32.97,4.55 C32.8471038,4.55459085 32.725662,4.57820454 32.61,4.62 C32.3128468,4.72528505 32.0640765,4.93496291 31.91,5.21 L31.91,5.26 L31.86,5.26 C31.7400193,5.3472054 31.6129029,5.42414433 31.48,5.49 C31.3701627,5.50479758 31.2645982,5.54225594 31.17,5.6 C31.0647535,5.49082464 30.9215109,5.42636547 30.77,5.42 C30.6869476,5.41032242 30.6030524,5.41032242 30.52,5.42 L30.42,5.42 C30.2502288,5.46528172 30.0859188,5.52899378 29.93,5.61 L29.84,5.61 C29.7664486,5.56980199 29.683815,5.54914361 29.6,5.55 C29.4825496,5.55117237 29.3692609,5.59365564 29.28,5.67 C29.0385473,5.91280786 28.9144771,6.24852724 28.94,6.59 C28.94,6.65 28.94,6.7 28.94,6.75 C28.6378516,6.91321153 28.4582486,7.23727777 28.48,7.58 C28.4946217,7.69619506 28.5394445,7.80652805 28.61,7.9 C28.5258119,8.18388996 28.5258119,8.48611004 28.61,8.77 C28.7147662,9.02439293 28.9473026,9.2035603 29.22,9.24 C29.2716886,9.29381151 29.3326663,9.3378509 29.4,9.37 C29.4908969,9.51261168 29.6100049,9.63512277 29.75,9.73 L29.92,9.87 C29.9273565,10.0464764 29.9864785,10.216887 30.09,10.36 C30.008882,10.6078183 30.0418454,10.87885 30.18,11.1 C30.3257154,11.3053835 30.543555,11.4482292 30.79,11.5 L30.85,11.5 C30.8771731,11.6446997 30.9428034,11.7794144 31.04,11.89 C30.9823763,11.9458703 30.9144528,11.9900206 30.84,12.02 C30.4629256,12.1691916 30.2389306,12.5591087 30.3,12.96 C30.2967357,13.0099467 30.2967357,13.0600533 30.3,13.11 C30.0656879,13.3194409 29.9434654,13.626849 29.97,13.94 C29.9900702,14.2540333 30.0540247,14.563708 30.16,14.86 C30.244559,15.0613277 30.4068232,15.219986 30.61,15.3 C30.6633593,15.408259 30.7305915,15.5091072 30.81,15.6 C30.8498857,15.6416205 30.8835652,15.6887718 30.91,15.74 C30.9646378,15.930332 31.111112,16.080562 31.3,16.14 L31.3,16.22 C31.2286856,16.4227745 31.2453761,16.6461277 31.3460355,16.8360512 C31.446695,17.0259746 31.6221593,17.1651777 31.83,17.22 C32.06,17.3 32.07,17.35 32.07,17.42 C32.0813181,17.6982662 32.2081646,17.9592075 32.42,18.14 C32.3541536,18.2011731 32.3028914,18.2763576 32.27,18.36 C32.1371183,18.512001 32.0657921,18.7081482 32.07,18.91 C32.0632111,19.0081122 32.0464582,19.1052791 32.02,19.2 C32.02,19.3 31.97,19.41 31.96,19.51 C31.9413774,19.5652727 31.9179547,19.6188101 31.89,19.67 C31.8112764,19.8088468 31.7603292,19.9616884 31.74,20.12 C31.7369506,20.2077253 31.7129486,20.2934465 31.67,20.37 C31.5107837,20.5016698 31.4042907,20.6862577 31.37,20.89 C31.37,20.99 31.37,21.02 31.27,21.08 C30.925056,21.382907 30.7465059,21.8330019 30.79,22.29 C30.79,22.38 30.79,22.46 30.79,22.55 C30.740656,22.8857648 30.7714969,23.2284415 30.88,23.55 C30.9299876,23.6541882 30.9976558,23.7489237 31.08,23.83 L31,23.96 C30.8524519,24.18166 30.7316141,24.4199791 30.64,24.67 L30.58,24.77 C30.390124,25.009422 30.3201377,25.3225189 30.39,25.62 C30.4710582,25.8246924 30.6461996,25.9774754 30.86,26.03 C31.0025621,26.0742649 31.1507396,26.0978386 31.3,26.1 L31.57,26.1 L31.78,26.1 C31.91,26.1 32.1,26.1 32.29,26.04 L32.52,26.04 C32.5224395,26.0866348 32.5224395,26.1333652 32.52,26.18 C32.5696627,26.4055474 32.680361,26.6131066 32.84,26.78 C32.98138,26.9625318 33.2293556,27.0245257 33.44,26.93 C33.5311487,26.8882057 33.6181936,26.8379875 33.7,26.78 L34,26.78 C34.2230589,26.7945457 34.4468758,26.7674163 34.66,26.7 C34.7552029,26.7714022 34.8709964,26.81 34.99,26.81 C35.0863594,26.8209002 35.1836406,26.8209002 35.28,26.81 L35.89,26.64 L36.34,26.51 C36.4758969,26.5922914 36.6311552,26.6371438 36.79,26.64 L37,26.64 C37.1150805,27.039637 37.4654884,27.3263343 37.88,27.36 L38,27.36 C38.2582079,27.2982488 38.4812622,27.1363545 38.62,26.91 C38.62,26.86 38.76,26.73 38.79,26.73 L38.89,26.73 C39.01,26.73 39.16,26.73 39.54,27.12 C39.7180398,27.2909806 39.9244454,27.4297122 40.15,27.53 L40.22,27.53 C40.2327119,27.7031003 40.2327119,27.8768997 40.22,28.05 C40.22,28.47 40.14,28.83 40.37,29.05 C40.4253949,29.1134883 40.4935406,29.1645976 40.57,29.2 C40.5997859,29.3212149 40.6505514,29.4362833 40.72,29.54 C40.8293138,29.7302866 40.9676436,29.9023554 41.13,30.05 C41.1004501,30.3767251 41.3346012,30.6683095 41.66,30.71 L41.74,30.71 C41.8649665,30.9901804 42.1187947,31.1917499 42.42,31.25 L42.49,31.25 C42.5356955,31.2988141 42.5759332,31.3524644 42.61,31.41 C42.5684251,31.5676678 42.5976352,31.735626 42.69,31.87 C42.7999765,32.0250275 42.9799922,32.1150353 43.17,32.11 L43.3,32.11 C43.6341801,32.0880766 43.9512302,31.954211 44.2,31.73 C44.3924011,31.5576668 44.5106573,31.3175709 44.53,31.06 C44.5383144,30.9850153 44.5550878,30.9112124 44.58,30.84 C44.75,30.4 44.76,29.58 43.87,28.17 C43.6127375,27.8407764 43.4163223,27.4682648 43.29,27.07 C43.2744949,26.9770626 43.2476268,26.8863829 43.21,26.8 C43.1372372,26.6549967 43.0501359,26.5176447 42.95,26.39 C42.7049874,26.0711434 42.509456,25.717164 42.37,25.34 L42.25,25.01 C42.02,24.37 41.98,24.18 42.15,24.01 C42.4031082,23.7395246 42.5396103,23.3803084 42.53,23.01 C42.6695417,22.9641221 42.7939813,22.8811623 42.89,22.77 L43.02,22.68 C43.2030872,22.5853305 43.3608243,22.4481678 43.48,22.28 L43.62,22.14 C43.79,21.97 44.11,21.67 43.94,21.26 L44.11,21.06 L44.22,20.92 C44.3967039,20.9169423 44.5652756,20.8452096 44.69,20.72 C44.7970939,20.5994484 44.8511566,20.4408643 44.84,20.28 L44.96,20.13 C45.07,20 45.16,19.88 45.27,19.73 C45.3768792,19.6845617 45.4872337,19.6477769 45.6,19.62 C45.781691,19.5871464 45.9530271,19.5117585 46.1,19.4 C46.3078236,19.1971842 46.3711937,18.8882553 46.26,18.62 C46.3984342,18.5182546 46.514215,18.3888525 46.6,18.24 L46.68,18.13 C46.8423089,17.9160302 46.8657176,17.6273233 46.74,17.39 C46.6714163,17.2524069 46.5679827,17.1351822 46.44,17.05 C46.4373413,16.9343093 46.4064447,16.8210218 46.35,16.72 C46.3763781,16.5083626 46.3149453,16.2951544 46.18,16.13 L46.24,16.01 C46.3120445,15.807022 46.3721473,15.6000014 46.42,15.39 C46.42,15.25 46.49,15.1 46.53,14.97 C46.6468626,14.6469093 46.6468626,14.2930907 46.53,13.97 C46.6896873,13.7621729 46.8053719,13.5239987 46.87,13.27 L46.87,13.2 C47.0213782,12.9515641 47.07818,12.6569049 47.03,12.37 C47.0261809,12.2933809 47.0261809,12.2166191 47.03,12.14 C47.03,12.06 47.03,11.96 47.03,11.87 C47.5688499,11.670381 48.0619849,11.3642972 48.48,10.97 C48.5832497,10.836657 48.6266892,10.6665189 48.6,10.5 L48.72,10.39 C48.7585314,10.3509255 48.7921163,10.3072651 48.82,10.26 C48.9148559,10.332062 49.0308781,10.3707361 49.15,10.37 C49.3441531,10.3597203 49.5252844,10.2691547 49.65,10.12 C49.728455,10.0378743 49.7866648,9.93857518 49.82,9.83 C50.05875,9.74794953 50.2370854,9.54684787 50.29,9.3 C50.3149283,8.97401479 50.1668541,8.65888261 49.9,8.47 C49.7434207,8.33677236 49.52125,8.31296835 49.34,8.41 C49.3596756,8.32445005 49.3596756,8.23554995 49.34,8.15 C49.3122721,8.03669077 49.2492356,7.93513203 49.16,7.86 C49.158022,7.83337001 49.158022,7.80662999 49.16,7.78 C49.2140014,7.66066411 49.2413036,7.53097905 49.24,7.4 C49.2354744,7.37017068 49.2354744,7.33982932 49.24,7.31 C49.3109468,7.2956167 49.3787052,7.26851334 49.44,7.23 C49.5067579,7.18852191 49.5645558,7.13412387 49.61,7.07 C49.7027071,7.02906587 49.782302,6.96331352 49.84,6.88 C50.0007315,6.77690546 50.1153886,6.61566888 50.16,6.43 C50.16,6.36 50.16,6.28 50.22,6.2 L50.37,6.08 C50.5565981,6.00503242 50.7215697,5.88474058 50.85,5.73 L50.96,5.73 C51.24,5.61 51.66,5.43 51.71,5.01 C51.7556391,4.75773745 51.6597319,4.50070619 51.46,4.34 L51.39,4.27 C51.3094668,4.17564763 51.2062183,4.10337365 51.09,4.06 C51.09,3.88 50.98,3.5 50.61,3.45 C50.5476976,3.3389986 50.4974132,3.22166821 50.46,3.1 C50.29,2.57 50,1.67 49.3,1.67 L49.28,1.71 Z M34.83,7.5 C34.8261199,7.53990591 34.8261199,7.58009409 34.83,7.62 C34.7192571,7.67743018 34.6180613,7.75164042 34.53,7.84 C34.5216719,7.77672043 34.5013052,7.71562054 34.47,7.66 C34.6054871,7.64094398 34.7333173,7.58566606 34.84,7.5 L34.83,7.5 Z M34.03,9.51 L34.03,9.45 C34.0246954,9.50654252 34.0246954,9.56345748 34.03,9.62 C34.03362,9.56672809 34.03362,9.51327191 34.03,9.46 L34.03,9.51 Z M34.03,11.51 C34.0522338,11.250584 34.0250879,10.9893046 33.95,10.74 L33.95,10.6 C33.9369403,10.5238895 33.9369403,10.4461105 33.95,10.37 C33.9849236,10.2587696 34.0116616,10.1451328 34.03,10.03 C34.0517772,10.1111896 34.0854773,10.1886998 34.13,10.26 L34.13,10.32 C34.3055301,10.5586937 34.4064397,10.8440243 34.42,11.14 C34.4162387,11.3619184 34.3466266,11.5777156 34.22,11.76 L34.16,11.76 C34.094312,11.6689125 34.0373916,11.571813 33.99,11.47 L34.03,11.51 Z" id="Shape" fill="#FFFFFF" fill-rule="nonzero"></path>
                <path d="M20.7,13.41 L20.42,18.29 L19.42,18.29 L19.01,24.35 L15.2,24.45 C14.88,24.45 13.56,24.32 13.56,24.32 L13.41,24.81 C12.5265266,24.7411618 11.6481735,24.6175912 10.78,24.44 C10.6292013,24.3959213 10.4754885,24.3625055 10.32,24.34 C10.32,24.34 7.13,22.58 6.95,22.42 C6.89912686,22.3782115 6.8696424,22.3158358 6.8696424,22.25 C6.8696424,22.1841642 6.89912686,22.1217885 6.95,22.08 C6.95,22.08 6.24,22.08 5.95,22.01 L4.46,21.83 C4.46,21.83 4.4,21.31 4.39,21.01 C4.38,20.71 4.07,20.66 3.91,20.35 C3.75,20.04 3.47,20.25 3.52,19.99 C3.57,19.73 3.44,28.99 3.24,28.99 C2.99836152,28.9420841 2.80250716,28.7654311 2.73,28.53 C2.68,28.28 2.31,28.23 1.9,28.14 C1.49,28.05 1.53,27.84 1.57,27.7 C1.63601602,27.5385488 1.66341032,27.3639102 1.65,27.19 C1.65,27.05 1.55,26.96 1.65,26.83 C1.75,26.7 1.42,26.62 1.34,26.48 C1.22023458,26.3470137 1.16856931,26.1661852 1.2,25.99 C1.2,25.66 0.92,25.64 0.86,25.39 C0.8,25.14 1.03,25.07 1.1,24.95 C1.17,24.83 1.21,24.74 1.03,24.69 C0.85,24.64 0.76,24.24 0.76,23.87 C0.76,23.5 0.94,23.71 1.01,23.87 C1.08,24.03 1.16,23.87 1.12,23.75 C1.0737583,23.600153 1.0737583,23.439847 1.12,23.29 C1.17,23.12 1,23.22 0.79,23.37 C0.58,23.52 0.35,22.58 0.29,22.37 C0.176745713,22.1475982 0.102340915,21.9074736 0.07,21.66 C0.138138763,21.2839777 0.168290462,20.9020562 0.16,20.52 C0.11,20.08 -0.02,19.74 0.16,19.52 C0.380905623,19.2476505 0.547270848,18.9352913 0.65,18.6 C0.688249697,18.3426969 0.671204167,18.0801957 0.6,17.83 C0.622976034,17.494335 0.66638986,17.1603825 0.73,16.83 C0.73,16.53 1.19,16.08 1.24,15.83 C1.29,15.58 1.79,14.56 1.87,14.37 C1.95,14.18 2.34,12.91 2.35,12.85 C2.36,12.79 2.5,12.16 2.52,11.92 C2.52436783,11.5404611 2.48748473,11.161571 2.41,10.79 C2.36,10.65 2.41,10.14 2.52,10.25 C2.63,10.36 3.22,1.45 3.52,1.56 C3.61788608,1.59333061 3.69528404,1.66939608 3.73030936,1.76668863 C3.76533468,1.86398118 3.75418024,1.97192551 3.7,2.06 C3.64,2.15 3.26,11.88 3.36,11.88 C3.46,11.88 4.01,1.97 4.02,2.04 C3.96404642,2.22131035 3.86446993,2.38612661 3.73,2.52 C3.62,2.62 3.52,2.72 3.55,2.82 C3.58,2.92 4.04,2.71 4.11,2.63 C4.18,2.55 4,2.47 4.05,2.39 C4.10360857,2.31255766 4.13789758,2.22340624 4.15,2.13 C4.15,2.07 4.38,1.97 4.24,1.96 C4.1,1.95 4.24,1.9 4.24,1.79 C4.24,1.68 4.24,1.56 4.18,1.54 C4.12,1.52 3.97,1.65 3.94,1.54 C3.91,1.43 4.12,1.26 4.27,1.22 C4.42,1.18 4.27,1.12 4.2,1.01 C4.12814894,0.920034546 4.10227376,0.801747989 4.13,0.69 C4.13325312,0.641965592 4.10489132,0.597397037 4.06,0.58 C4.49,0.71 5.97,1.16 6.55,1.26 C7.13,1.36 13.41,2.71 17.45,3.1 C18.16,3.17 18.87,3.22 19.57,3.27 C19.49,4.27 19.23,7.53 19.21,7.82 C19.19,8.11 18.78,13.11 18.78,13.11 L20.7,13.41 Z" id="Path" stroke="#FFFFFF" stroke-width="0.5" fill="#DFE9EA" stroke-linecap="round" stroke-linejoin="round"></path>
            </g>
        </g>
    </g>
</svg>